<svg width="45" height="45" viewBox="0 0 45 45" fill="none" xmlns="http://www.w3.org/2000/svg">
<path d="M45 24.5C45 29.4354 43.3772 32.2339 40.3817 36.1563C37.3862 40.0787 33.184 42.9073 28.4227 44.2065C23.6613 45.5056 18.6049 45.2032 14.0323 43.3458C9.45974 41.4884 5.62472 38.1791 3.11806 33.9276C0.611387 29.6761 -0.427864 24.7184 0.160397 19.8182C0.748658 14.918 2.9318 10.3471 6.3735 6.80969C9.8152 3.27231 14.3245 0.964686 19.2068 0.242312C24.089 -0.480063 29.0734 0.422888 33.392 2.81206L27.1063 14.1738C25.28 13.1634 23.172 12.7815 21.1073 13.087C19.0425 13.3925 17.1355 14.3684 15.6799 15.8644C14.2244 17.3604 13.3011 19.2935 13.0523 21.3658C12.8036 23.4382 13.2431 25.5349 14.3032 27.3329C15.3633 29.1308 16.9851 30.5304 18.9189 31.3159C20.8527 32.1014 22.9911 32.2293 25.0048 31.6799C27.0184 31.1305 28.7955 29.9342 30.0624 28.2754C31.3292 26.6166 32.0155 24.5872 32.0155 22.5L45 24.5Z" fill="#4169E1"/>
<path d="M32 17H45V22.5L32 20.6364V17Z" fill="#4169E1"/>
</svg>
